<svg xmlns="http://www.w3.org/2000/svg">
  <path id="test-quiz" d="M59.686,0a.526.526,0,0,0-.428.241L57.733,2.529H52.538a.526.526,0,0,0-.526.526V8.318a.526.526,0,0,0,.526.526H57.8a.526.526,0,0,0,.526-.526V4.166L57.275,5.745V7.792h-4.21V3.581h3.966L55.551,5.8,54.9,4.508a.526.526,0,1,0-.947.459l.006.011,1.053,2.105a.526.526,0,0,0,.909.057L60.134.825A.526.526,0,0,0,59.686,0Zm2.326,4.634a.526.526,0,0,0-.526.526v.053a.526.526,0,0,0,.526.526h9.474a.526.526,0,0,0,.526-.526V5.161a.526.526,0,0,0-.526-.526ZM52.538,9.9a.526.526,0,0,0-.526.526V15.69a.526.526,0,0,0,.526.526H57.8a.526.526,0,0,0,.526-.526V10.427A.526.526,0,0,0,57.8,9.9Zm.526,1.053h4.21v4.21h-4.21ZM62.012,12a.526.526,0,0,0-.526.526v.053a.526.526,0,0,0,.526.526h9.474a.526.526,0,0,0,.526-.526v-.053A.526.526,0,0,0,71.485,12H62.012Zm-9.474,5.263a.526.526,0,0,0-.526.526v5.263a.526.526,0,0,0,.526.526H57.8a.526.526,0,0,0,.526-.526V17.792a.526.526,0,0,0-.526-.526Zm.526,1.053h4.21v4.21h-4.21Zm8.947,1.056a.526.526,0,0,0-.526.526v.053a.526.526,0,0,0,.526.526h9.474a.526.526,0,0,0,.526-.526V19.9a.526.526,0,0,0-.526-.526Zm-9.474,5.259a.526.526,0,0,0-.526.526v5.263a.526.526,0,0,0,.526.526H57.8a.526.526,0,0,0,.526-.526V25.16a.526.526,0,0,0-.526-.526Zm.526,1.053h4.21V29.9h-4.21Zm8.947,1.053a.526.526,0,0,0-.526.526v.053a.526.526,0,0,0,.526.526h9.474a.526.526,0,0,0,.526-.526v-.053a.526.526,0,0,0-.526-.526H62.012Z" transform="translate(-52.012 0)" fill="#959595"/>
</svg>
