<svg xmlns="http://www.w3.org/2000/svg" width="20" height="20" viewBox="0 0 20 20">
  <path id="Path_68" data-name="Path 68" d="M19.094,10.084V7.273a1.814,1.814,0,0,0-1.673-1.8L14.81.91A1.8,1.8,0,0,0,12.342.245L3.393,5.455H1.821A1.82,1.82,0,0,0,0,7.273V18.182A1.82,1.82,0,0,0,1.821,20H17.276a1.82,1.82,0,0,0,1.818-1.818V15.371A1.361,1.361,0,0,0,20,14.091V11.364A1.361,1.361,0,0,0,19.094,10.084ZM12.8,1.031A.88.88,0,0,1,13.475.94a.891.891,0,0,1,.546.422l.886,1.547a3.121,3.121,0,0,1-1.267.273,3.132,3.132,0,0,1-2.471-1.2ZM10.379,2.44A4.01,4.01,0,0,0,15.357,3.7l1.007,1.759H5.2Zm7.806,15.742a.91.91,0,0,1-.909.909H1.821a.91.91,0,0,1-.909-.909V7.273a.91.91,0,0,1,.909-.909H17.276a.91.91,0,0,1,.909.909V10H15.458a2.727,2.727,0,1,0,0,5.455h2.727v2.727Zm.909-4.091a.455.455,0,0,1-.455.455H15.458a1.818,1.818,0,1,1,0-3.636h3.182a.455.455,0,0,1,.455.455Z" transform="translate(-0.003 0)"/>
</svg>
