<svg id="detail" xmlns="http://www.w3.org/2000/svg" width="20" height="20" viewBox="0 0 20 20">
  <g id="Group_188" data-name="Group 188" transform="translate(15 7.5)">
    <path id="Path_47" data-name="Path 47" d="M20.5,14A2.5,2.5,0,1,1,23,11.5,2.5,2.5,0,0,1,20.5,14Zm0-4.167A1.667,1.667,0,1,0,22.167,11.5,1.668,1.668,0,0,0,20.5,9.833Z" transform="translate(-18 -9)"/>
  </g>
  <g id="Group_189" data-name="Group 189" transform="translate(0 8.333)">
    <path id="Path_48" data-name="Path 48" d="M12.917,10.833H.417a.417.417,0,1,1,0-.833h12.5a.417.417,0,1,1,0,.833Z" transform="translate(0 -10)"/>
  </g>
  <g id="Group_190" data-name="Group 190" transform="translate(0 10.833)">
    <path id="Path_49" data-name="Path 49" d="M12.917,13.833H.417a.417.417,0,1,1,0-.833h12.5a.417.417,0,1,1,0,.833Z" transform="translate(0 -13)"/>
  </g>
  <g id="Group_191" data-name="Group 191" transform="translate(0 15)">
    <path id="Path_50" data-name="Path 50" d="M18.75,23H1.25A1.252,1.252,0,0,1,0,21.75v-2.5A1.252,1.252,0,0,1,1.25,18h17.5A1.252,1.252,0,0,1,20,19.25v2.5A1.252,1.252,0,0,1,18.75,23ZM1.25,18.833a.417.417,0,0,0-.417.417v2.5a.417.417,0,0,0,.417.417h17.5a.417.417,0,0,0,.417-.417v-2.5a.417.417,0,0,0-.417-.417Z" transform="translate(0 -18)"/>
  </g>
  <g id="Group_192" data-name="Group 192">
    <path id="Path_51" data-name="Path 51" d="M18.75,5H1.25A1.252,1.252,0,0,1,0,3.75V1.25A1.252,1.252,0,0,1,1.25,0h17.5A1.252,1.252,0,0,1,20,1.25v2.5A1.252,1.252,0,0,1,18.75,5ZM1.25.833a.417.417,0,0,0-.417.417v2.5a.417.417,0,0,0,.417.417h17.5a.417.417,0,0,0,.417-.417V1.25A.417.417,0,0,0,18.75.833Z"/>
  </g>
</svg>
