<svg xmlns="http://www.w3.org/2000/svg" width="50.507" height="54" viewBox="0 0 50.507 54">
  <g id="pencil" transform="translate(-16.559)">
    <g id="Group_111" data-name="Group 111" transform="translate(17.349 0.791)">
      <path id="Path_172" data-name="Path 172" d="M106.907,104.334v38.711a3.494,3.494,0,0,0,3.494,3.494h33.2a3.494,3.494,0,0,0,3.495-3.494V104.334Z" transform="translate(-98.168 -94.121)" fill="#f9f5f3"/>
      <path id="Path_173" data-name="Path 173" d="M435.3,104.334v38.711a3.494,3.494,0,0,1-3.494,3.494h2.426a3.494,3.494,0,0,0,3.494-3.494V104.334Z" transform="translate(-388.802 -94.121)" fill="#ffe8e8"/>
      <g id="Group_109" data-name="Group 109" transform="translate(0 24.459)">
        <path id="Path_174" data-name="Path 174" d="M67.828,278.246,54.191,264.609l-4.942,4.942,13.637,13.637a.844.844,0,0,0,.6.247h.753l3.839-3.839v-.753A.844.844,0,0,0,67.828,278.246Z" transform="translate(-46.591 -261.951)" fill="#ffe8e8"/>
        <path id="Path_175" data-name="Path 175" d="M99.478,278.246,85.84,264.609l-1.21,1.21,14.112,14.112a.843.843,0,0,1,.228.419l.755-.755v-.753A.844.844,0,0,0,99.478,278.246Z" transform="translate(-78.24 -261.951)" fill="#ffcece"/>
        <path id="Path_176" data-name="Path 176" d="M186.3,400.813v-3.749a.843.843,0,0,0-.054-.3l-4.833,4.833a.842.842,0,0,0,.3.054h3.749A.844.844,0,0,0,186.3,400.813Z" transform="translate(-164.812 -380.172)" fill="#f9eae0"/>
        <path id="Path_177" data-name="Path 177" d="M27.03,239.92l-2.471,2.471a1.747,1.747,0,0,0,0,2.471l2.471,2.471,4.942-4.942L29.5,239.92A1.747,1.747,0,0,0,27.03,239.92Z" transform="translate(-24.047 -239.408)" fill="#f96868"/>
        <path id="Path_178" data-name="Path 178" d="M52.567,239.9l.025.023,3.681,3.681,1.21-1.21-2.471-2.471A1.746,1.746,0,0,0,52.567,239.9Z" transform="translate(-49.559 -239.413)" fill="#ff9191"/>
      </g>
      <path id="Path_179" data-name="Path 179" d="M143.6,40.634H110.4a3.494,3.494,0,0,0-3.494,3.494V49.37h40.187V44.128A3.494,3.494,0,0,0,143.6,40.634Z" transform="translate(-98.167 -37.139)" fill="#f96868"/>
      <path id="Path_180" data-name="Path 180" d="M434.234,40.634h-2.426a3.494,3.494,0,0,1,3.494,3.494V49.37h2.426V44.128A3.494,3.494,0,0,0,434.234,40.634Z" transform="translate(-388.802 -37.139)" fill="#ff8585"/>
      <g id="Group_110" data-name="Group 110" transform="translate(13.981)">
        <path id="Path_181" data-name="Path 181" d="M156.607,12.742a1.747,1.747,0,1,0,3.495,0V9.247a1.747,1.747,0,1,0-3.495,0Z" transform="translate(-156.607 -7.5)" fill="#bdd3dd"/>
        <path id="Path_182" data-name="Path 182" d="M405.107,12.742a1.747,1.747,0,1,0,3.495,0V9.247a1.747,1.747,0,1,0-3.495,0Z" transform="translate(-378.898 -7.5)" fill="#bdd3dd"/>
        <path id="Path_183" data-name="Path 183" d="M239.44,12.742a1.747,1.747,0,1,0,3.495,0V9.247a1.747,1.747,0,0,0-3.495,0Z" transform="translate(-230.704 -7.5)" fill="#bdd3dd"/>
        <path id="Path_184" data-name="Path 184" d="M322.274,12.742a1.747,1.747,0,1,0,3.495,0V9.247a1.747,1.747,0,1,0-3.495,0Z" transform="translate(-304.801 -7.5)" fill="#bdd3dd"/>
      </g>
      <path id="Path_185" data-name="Path 185" d="M411.387,7.5a1.74,1.74,0,0,0-1.213.491,1.741,1.741,0,0,1,.534,1.256v3.494A1.741,1.741,0,0,1,410.174,14a1.746,1.746,0,0,0,2.96-1.256V9.247A1.747,1.747,0,0,0,411.387,7.5Z" transform="translate(-369.45 -7.5)" fill="#abc4d6"/>
      <path id="Path_186" data-name="Path 186" d="M328.554,7.5a1.74,1.74,0,0,0-1.213.491,1.741,1.741,0,0,1,.534,1.256v3.494A1.741,1.741,0,0,1,327.341,14a1.746,1.746,0,0,0,2.96-1.256V9.247A1.747,1.747,0,0,0,328.554,7.5Z" transform="translate(-295.353 -7.5)" fill="#abc4d6"/>
      <path id="Path_187" data-name="Path 187" d="M245.721,7.5a1.74,1.74,0,0,0-1.213.491,1.741,1.741,0,0,1,.534,1.256v3.494A1.741,1.741,0,0,1,244.508,14a1.746,1.746,0,0,0,2.96-1.256V9.247A1.747,1.747,0,0,0,245.721,7.5Z" transform="translate(-221.256 -7.5)" fill="#abc4d6"/>
      <path id="Path_188" data-name="Path 188" d="M162.887,7.5a1.74,1.74,0,0,0-1.213.491,1.741,1.741,0,0,1,.534,1.256v3.494A1.741,1.741,0,0,1,161.674,14a1.746,1.746,0,0,0,2.96-1.256V9.247A1.747,1.747,0,0,0,162.887,7.5Z" transform="translate(-147.159 -7.5)" fill="#abc4d6"/>
    </g>
    <g id="Group_112" data-name="Group 112" transform="translate(16.559 0)">
      <path id="Path_189" data-name="Path 189" d="M62.781,3.495h-.956V2.538a2.538,2.538,0,1,0-5.077,0v.956h-3.66V2.538a2.538,2.538,0,1,0-5.077,0v.956h-3.66V2.538a2.538,2.538,0,1,0-5.077,0v.956h-3.66V2.538a2.538,2.538,0,1,0-5.077,0v.956h-.956A4.29,4.29,0,0,0,25.3,7.78V27.137L23.362,25.2a2.541,2.541,0,0,0-3.59,0L17.3,27.674a2.541,2.541,0,0,0,0,3.59l8,8V49.714A4.29,4.29,0,0,0,29.582,54H56.491a.791.791,0,0,0,0-1.582H29.582a2.706,2.706,0,0,1-2.7-2.7V40.841l6.453,6.453a.772.772,0,0,0,.059.053c.014.011.028.021.043.032l.02.015c.018.012.037.023.056.033l.011.006c.02.011.04.02.061.029l.009,0c.02.008.04.015.061.022l.012,0,.058.015.017,0,.057.008.02,0c.026,0,.051,0,.077,0h4.614l1,1a.791.791,0,0,0,1.119-1.119l-1-1V41.793q0-.039,0-.078c0-.006,0-.011,0-.017s-.005-.04-.009-.06l0-.015c0-.02-.009-.04-.015-.06l0-.011c-.007-.021-.014-.042-.022-.062l0-.007c-.009-.021-.019-.043-.03-.063l0-.008c-.011-.02-.022-.039-.035-.058l-.013-.017c-.011-.015-.022-.031-.033-.045s-.034-.04-.053-.059L32.94,34.78H60.16a.791.791,0,0,0,0-1.582H32.2a.788.788,0,0,0-.585.26l-4.739-4.739V13.813H65.484v5.395a.791.791,0,0,0,1.582,0V7.78a4.29,4.29,0,0,0-4.285-4.285ZM38.042,45.943H35.8L38.042,43.7ZM21.45,33.175,22.8,31.823,35.244,44.264l-1.352,1.352Zm14.912,9.97L23.921,30.7l1.352-1.352L37.715,41.792ZM18.42,28.792l2.471-2.471a.957.957,0,0,1,1.352,0l1.912,1.912-1.911,1.911h0l-1.912,1.911L18.42,30.145A.957.957,0,0,1,18.42,28.792ZM59.286,1.582a.957.957,0,0,1,.956.956V6.033a.956.956,0,1,1-1.913,0V4.287h0V2.538a.957.957,0,0,1,.956-.956Zm-8.736,0a.957.957,0,0,1,.956.956V6.033a.956.956,0,1,1-1.913,0V4.287h0V2.538a.957.957,0,0,1,.956-.956Zm-9.693.956a.956.956,0,1,1,1.913,0V4.285h0V6.033a.956.956,0,1,1-1.913,0Zm-7.78-.956a.957.957,0,0,1,.956.956V4.285h0V6.033a.956.956,0,0,1-1.913,0V4.287h0V2.538A.957.957,0,0,1,33.077,1.582Zm-6.2,10.649V7.78a2.706,2.706,0,0,1,2.7-2.7h.956v.956a2.538,2.538,0,1,0,5.077,0V5.077h3.66v.956a2.538,2.538,0,1,0,5.077,0V5.077h3.66v.956a2.538,2.538,0,1,0,5.077,0V5.077h3.66v.956a2.538,2.538,0,1,0,5.077,0V5.077h.956a2.707,2.707,0,0,1,2.7,2.7v4.451Z" transform="translate(-16.559 0)"/>
      <path id="Path_190" data-name="Path 190" d="M425.085,204.619a.791.791,0,0,0-.791.791v27.343a2.707,2.707,0,0,1-2.7,2.7h-3.125a.791.791,0,0,0,0,1.582h3.125a4.29,4.29,0,0,0,4.286-4.286V205.41A.791.791,0,0,0,425.085,204.619Z" transform="translate(-375.369 -183.038)"/>
      <path id="Path_191" data-name="Path 191" d="M158.181,167.249h27.956a.791.791,0,1,0,0-1.582H158.181a.791.791,0,0,0,0,1.582Z" transform="translate(-142.537 -148.194)"/>
      <path id="Path_192" data-name="Path 192" d="M158.181,216.949h27.956a.791.791,0,0,0,0-1.582H158.181a.791.791,0,0,0,0,1.582Z" transform="translate(-142.537 -192.653)"/>
      <path id="Path_193" data-name="Path 193" d="M158.181,266.649h27.956a.791.791,0,0,0,0-1.582H158.181a.791.791,0,0,0,0,1.582Z" transform="translate(-142.537 -237.111)"/>
      <path id="Path_194" data-name="Path 194" d="M268.436,365.258a.791.791,0,0,0-.791-.791H249.3a.791.791,0,1,0,0,1.582h18.346A.791.791,0,0,0,268.436,365.258Z" transform="translate(-224.045 -326.027)"/>
    </g>
  </g>
</svg>
